<svg width="22" height="14" viewBox="0 0 22 14" fill="none" xmlns="http://www.w3.org/2000/svg">
<path d="M22 2.54545V11.4545C22 11.8059 21.9284 12.134 21.7852 12.4389C21.6419 12.7438 21.445 13.0123 21.1943 13.2443C20.9437 13.4763 20.6501 13.6586 20.3135 13.7912C19.9769 13.9238 19.6224 13.9934 19.25 14H2.6748C2.30957 14 1.96582 13.9337 1.64355 13.8011C1.32129 13.6686 1.03841 13.4929 0.794922 13.2741C0.551432 13.0554 0.358073 12.7936 0.214844 12.4886C0.0716146 12.1837 0 11.8622 0 11.5241V0H19.25V2.54545H22ZM20.625 3.81818H19.25V10.8182C19.25 10.9905 19.182 11.1397 19.0459 11.2656C18.9098 11.3916 18.7487 11.4545 18.5625 11.4545C18.3763 11.4545 18.2152 11.3916 18.0791 11.2656C17.943 11.1397 17.875 10.9905 17.875 10.8182V1.27273H1.375V11.5241C1.375 11.6899 1.40723 11.8456 1.47168 11.9915C1.53613 12.1373 1.62923 12.2633 1.75098 12.3693C1.87272 12.4754 2.01237 12.5616 2.16992 12.6278C2.32747 12.6941 2.49577 12.7273 2.6748 12.7273H19.25C19.4434 12.7273 19.6224 12.6941 19.7871 12.6278C19.9518 12.5616 20.0951 12.4721 20.2168 12.3594C20.3385 12.2467 20.4388 12.1108 20.5176 11.9517C20.5964 11.7926 20.6322 11.6269 20.625 11.4545V3.81818ZM16.5 3.81818H2.75V2.54545H16.5V3.81818ZM16.5 11.4545H11V10.1818H16.5V11.4545ZM16.5 8.90909H11V7.63636H16.5V8.90909ZM16.5 6.36364H11V5.09091H16.5V6.36364ZM9.625 11.4545H2.75V5.06108H9.625V11.4545ZM4.125 10.1818H8.25V6.33381H4.125V10.1818Z" fill="#C4C4C4"/>
</svg>
