<svg width="261" height="195" viewBox="0 0 261 195" fill="none" xmlns="http://www.w3.org/2000/svg">
<path d="M261 171.363H0V171.494H261V171.363Z" fill="#EBEBEB"/>
<path d="M44.6734 179.785H27.3848V179.915H44.6734V179.785Z" fill="#EBEBEB"/>
<path d="M93.8711 181.208H89.335V181.339H93.8711V181.208Z" fill="#EBEBEB"/>
<path d="M58.4641 174.927H45.1948V175.058H58.4641V174.927Z" fill="#EBEBEB"/>
<path d="M234.848 175.807H220.284V175.938H234.848V175.807Z" fill="#EBEBEB"/>
<path d="M215.638 175.807H204.347V175.938H215.638V175.807Z" fill="#EBEBEB"/>
<path d="M171.561 178.015H144.704V178.146H171.561V178.015Z" fill="#EBEBEB"/>
<path d="M123.714 148.019H22.9207C22.1311 148.018 21.3743 147.702 20.8165 147.142C20.2586 146.582 19.9453 145.822 19.9453 145.03V2.96248C19.9522 2.17529 20.2685 1.42261 20.8256 0.867921C21.3827 0.313236 22.1356 0.0013485 22.9207 0H123.714C124.504 0 125.262 0.314874 125.821 0.875354C126.38 1.43583 126.694 2.19601 126.694 2.98865V145.03C126.694 145.823 126.38 146.583 125.821 147.144C125.262 147.704 124.504 148.019 123.714 148.019ZM22.9207 0.104682C22.1657 0.106068 21.4421 0.407767 20.9087 0.943557C20.3754 1.47935 20.0758 2.20545 20.0758 2.96248V145.03C20.0758 145.787 20.3754 146.514 20.9087 147.049C21.4421 147.585 22.1657 147.887 22.9207 147.888H123.714C124.469 147.887 125.193 147.585 125.728 147.05C126.262 146.514 126.562 145.788 126.564 145.03V2.96248C126.562 2.20497 126.262 1.47888 125.728 0.943238C125.193 0.407597 124.469 0.106065 123.714 0.104682H22.9207Z" fill="#EBEBEB"/>
<path d="M236.628 148.019H135.83C135.04 148.018 134.282 147.702 133.724 147.142C133.165 146.582 132.851 145.823 132.849 145.03V2.96248C132.857 2.17481 133.175 1.42213 133.733 0.867593C134.291 0.313053 135.044 0.00133379 135.83 0H236.628C237.412 0.00272406 238.164 0.315221 238.72 0.869758C239.276 1.42429 239.591 2.17619 239.598 2.96248V145.03C239.598 145.821 239.286 146.58 238.729 147.14C238.172 147.7 237.417 148.016 236.628 148.019ZM135.83 0.104682C135.074 0.106065 134.35 0.407597 133.816 0.943238C133.282 1.47888 132.981 2.20497 132.98 2.96248V145.03C132.981 145.788 133.282 146.514 133.816 147.05C134.35 147.585 135.074 147.887 135.83 147.888H236.628C237.383 147.887 238.108 147.585 238.642 147.05C239.176 146.514 239.477 145.788 239.478 145.03V2.96248C239.477 2.20497 239.176 1.47888 238.642 0.943238C238.108 0.407597 237.383 0.106065 236.628 0.104682H135.83Z" fill="#EBEBEB"/>
<path d="M36.5503 63.8188H39.0559L40.648 40.7H37.3907L36.5503 63.8188Z" fill="#E6E6E6"/>
<path d="M38.0068 63.8188H40.5124L42.1045 40.7H39.5937L38.0068 63.8188Z" fill="#F5F5F5"/>
<path d="M101.498 63.8188H104.003L105.595 40.7H102.338L101.498 63.8188Z" fill="#E6E6E6"/>
<path d="M102.954 63.8188H105.459L107.051 40.7H104.54L102.954 63.8188Z" fill="#F5F5F5"/>
<path d="M30.3484 40.7H47.0732V36.7797H30.3484V40.7Z" fill="#E6E6E6"/>
<path d="M116.296 36.7797H47.0732V40.7H116.296V36.7797Z" fill="#F5F5F5"/>
<path d="M30.3484 57.8991H47.0732V53.9788H30.3484V57.8991Z" fill="#E6E6E6"/>
<path d="M116.296 53.9736H47.0732V57.8939H116.296V53.9736Z" fill="#F5F5F5"/>
<path d="M78.994 15.3463H58.683C56.0163 15.3463 53.8545 17.5139 53.8545 20.1878V31.933C53.8545 34.6069 56.0163 36.7745 58.683 36.7745H78.994C81.6607 36.7745 83.8225 34.6069 83.8225 31.933V20.1878C83.8225 17.5139 81.6607 15.3463 78.994 15.3463Z" fill="#E0E0E0"/>
<path d="M80.6129 34.4244H60.2967C58.9478 34.423 57.6546 33.8847 56.7012 32.9279C55.7479 31.971 55.2124 30.6737 55.2124 29.3212V17.5707C55.2138 16.2186 55.7497 14.9222 56.7028 13.9656C57.6558 13.009 58.9482 12.4703 60.2967 12.4675H80.6129C81.9623 12.4689 83.2561 13.007 84.2102 13.9638C85.1644 14.9205 85.701 16.2177 85.7024 17.5707V29.3107C85.7031 29.9816 85.572 30.646 85.3166 31.266C85.0612 31.8861 84.6865 32.4496 84.2139 32.9245C83.7413 33.3993 83.18 33.7762 82.5622 34.0335C81.9443 34.2909 81.282 34.4237 80.6129 34.4244ZM60.2967 12.9909C59.0866 12.9937 57.927 13.4773 57.0719 14.3357C56.2167 15.1941 55.7358 16.3574 55.7344 17.5707V29.3107C55.7358 30.524 56.2167 31.6873 57.0719 32.5458C57.927 33.4042 59.0866 33.8878 60.2967 33.8905H80.6129C81.8235 33.8878 82.9836 33.4044 83.8396 32.5461C84.6956 31.6878 85.1777 30.5245 85.1804 29.3107V17.5707C85.1777 16.3569 84.6956 15.1937 83.8396 14.3354C82.9836 13.4771 81.8235 12.9937 80.6129 12.9909H60.2967Z" fill="#E0E0E0"/>
<path d="M83.6976 15.3463H63.3866C60.7199 15.3463 58.5581 17.5139 58.5581 20.1878V31.933C58.5581 34.6069 60.7199 36.7745 63.3866 36.7745H83.6976C86.3643 36.7745 88.5261 34.6069 88.5261 31.933V20.1878C88.5261 17.5139 86.3643 15.3463 83.6976 15.3463Z" fill="#F0F0F0"/>
<path d="M88.5257 26.0656H57.1587V26.7827H88.5257V26.0656Z" fill="#E0E0E0"/>
<path d="M88.5257 29.7713H57.1587V30.4884H88.5257V29.7713Z" fill="#E0E0E0"/>
<path d="M80.1435 33.308C83.5092 32.8325 85.8533 29.7112 85.379 26.3364C84.9048 22.9616 81.7919 20.6113 78.4262 21.0868C75.0605 21.5623 72.7165 24.6836 73.1907 28.0584C73.6649 31.4331 76.7778 33.7835 80.1435 33.308Z" fill="#E0E0E0"/>
<path d="M83.4028 31.7141C86.1173 29.6631 86.6596 25.7939 84.6141 23.072C82.5685 20.3502 78.7097 19.8064 75.9952 21.8575C73.2806 23.9085 72.7383 27.7777 74.7839 30.4996C76.8294 33.2214 80.6882 33.7652 83.4028 31.7141Z" fill="#F5F5F5"/>
<path d="M83.3449 30.4369C85.3569 28.4195 85.3569 25.1485 83.3449 23.1311C81.3328 21.1136 78.0707 21.1136 76.0586 23.1311C74.0466 25.1485 74.0466 28.4195 76.0586 30.4369C78.0707 32.4544 81.3328 32.4544 83.3449 30.4369Z" fill="#EBEBEB"/>
<path d="M51.8766 99.536H38.2002V169.364H51.8766V99.536Z" fill="#F0F0F0"/>
<path d="M108.268 169.364H40.8257V171.358H108.268V169.364Z" fill="#F0F0F0"/>
<path d="M51.8757 169.369H110.893L110.893 99.5413L51.8757 99.5413L51.8757 169.369Z" fill="#F5F5F5"/>
<path d="M105.522 108.125V131.029H57.2524V108.125H74.6455V108.575C74.6482 108.908 74.7818 109.227 75.0173 109.462C75.2528 109.697 75.5712 109.83 75.9035 109.831H86.902C87.2339 109.83 87.5517 109.697 87.7864 109.462C88.021 109.227 88.1535 108.908 88.1548 108.575V108.125H105.522Z" fill="#E0E0E0"/>
<path d="M110.523 107.335L105.522 131.029H57.2524L62.2584 107.335H79.641L79.5471 107.801C79.5011 107.952 79.4913 108.112 79.5185 108.267C79.5458 108.423 79.6093 108.57 79.7039 108.697C79.7985 108.823 79.9215 108.926 80.063 108.995C80.2044 109.065 80.3603 109.101 80.518 109.099H91.5217C91.882 109.078 92.2257 108.94 92.5007 108.706C92.7757 108.471 92.9672 108.154 93.046 107.801L93.1399 107.335H110.523Z" fill="#EBEBEB"/>
<path d="M57.253 160.769H105.517V137.87H57.253V160.769Z" fill="#EBEBEB"/>
<path d="M86.8817 136.431H75.8832C75.1913 136.431 74.6304 136.993 74.6304 137.687V138.315C74.6304 139.009 75.1913 139.571 75.8832 139.571H86.8817C87.5736 139.571 88.1345 139.009 88.1345 138.315V137.687C88.1345 136.993 87.5736 136.431 86.8817 136.431Z" fill="#F5F5F5"/>
<path d="M94.1063 82.6562H83.6768V85.4878H94.1063V82.6562Z" fill="#EBEBEB"/>
<path d="M94.1063 81.9235H63.1465V82.6562H94.1063V81.9235Z" fill="#E0E0E0"/>
<path d="M99.587 85.4826H47.5645V99.536H99.587V85.4826Z" fill="#F0F0F0"/>
<path d="M95.6043 84.7708H51.5527V85.4878H95.6043V84.7708Z" fill="#E0E0E0"/>
<path d="M61.5802 85.4826H47.5645V99.536H61.5802V85.4826Z" fill="#E0E0E0"/>
<path d="M64.5456 84.7708L64.984 82.6562H64.1123L64.5456 84.7708Z" fill="#E0E0E0"/>
<path d="M218.556 11.6353H150.732V160.775H218.556V11.6353Z" fill="#E6E6E6"/>
<path d="M221.724 11.6353H151.588V160.775H221.724V11.6353Z" fill="#F5F5F5"/>
<path d="M215.633 154.666V17.7382L157.67 17.7382V154.666H215.633Z" fill="white"/>
<path d="M206.315 47.7981C209.051 36.908 202.465 25.8558 191.604 23.1123C180.743 20.3689 169.721 26.973 166.984 37.8631C164.248 48.7531 170.835 59.8053 181.696 62.5488C192.556 65.2922 203.579 58.6881 206.315 47.7981Z" fill="#F0F0F0"/>
<path d="M186.657 62.2172C197.335 62.2172 205.992 53.5374 205.992 42.8303C205.992 32.1232 197.335 23.4433 186.657 23.4433C175.978 23.4433 167.322 32.1232 167.322 42.8303C167.322 53.5374 175.978 62.2172 186.657 62.2172Z" fill="#E0E0E0"/>
<path d="M186.657 48.4569C189.756 48.4569 192.268 45.9378 192.268 42.8303C192.268 39.7228 189.756 37.2037 186.657 37.2037C183.558 37.2037 181.045 39.7228 181.045 42.8303C181.045 45.9378 183.558 48.4569 186.657 48.4569Z" fill="white"/>
<path d="M184.438 65.164H172.375V77.2599H184.438V65.164Z" fill="#F5F5F5"/>
<path d="M200.938 65.164H188.875V77.2599H200.938V65.164Z" fill="#E6E6E6"/>
<path d="M206.373 116.881C208.989 105.962 202.282 94.9827 191.392 92.3591C180.502 89.7356 169.552 96.4608 166.936 107.38C164.319 118.3 171.027 129.279 181.917 131.902C192.807 134.526 203.756 127.801 206.373 116.881Z" fill="#F0F0F0"/>
<path d="M205.746 115.293C207.477 104.728 200.338 94.7554 189.801 93.0195C179.264 91.2837 169.319 98.4415 167.588 109.007C165.857 119.572 172.995 129.545 183.532 131.28C194.069 133.016 204.015 125.859 205.746 115.293Z" fill="#E6E6E6"/>
<path d="M186.657 117.761C189.756 117.761 192.268 115.242 192.268 112.134C192.268 109.027 189.756 106.508 186.657 106.508C183.558 106.508 181.045 109.027 181.045 112.134C181.045 115.242 183.558 117.761 186.657 117.761Z" fill="white"/>
<path d="M188.88 146.564H200.944V134.468H188.88V146.564Z" fill="#F5F5F5"/>
<path d="M172.375 146.564H184.438V134.468H172.375V146.564Z" fill="#E6E6E6"/>
<path d="M130.5 195C186.397 195 231.71 192.347 231.71 189.075C231.71 185.803 186.397 183.15 130.5 183.15C74.6026 183.15 29.2891 185.803 29.2891 189.075C29.2891 192.347 74.6026 195 130.5 195Z" fill="#F5F5F5"/>
<g opacity="0.4">
<path opacity="0.4" d="M74.7141 62.5783C64.3134 62.6424 54.0907 59.8727 45.1376 54.5649C45.0911 54.5366 45.0574 54.4913 45.0438 54.4385C45.0301 54.3857 45.0376 54.3297 45.0645 54.2823C45.078 54.2587 45.096 54.238 45.1176 54.2215C45.1392 54.205 45.1638 54.193 45.1901 54.1862C45.2163 54.1793 45.2437 54.1779 45.2705 54.1818C45.2974 54.1857 45.3232 54.195 45.3464 54.209C73.8163 70.8638 102.798 58.0875 130.834 45.7351C157.926 33.7962 185.947 21.4595 213.545 35.5915C213.569 35.6035 213.591 35.6202 213.608 35.6405C213.626 35.6608 213.639 35.6844 213.648 35.7099C213.656 35.7354 213.66 35.7624 213.658 35.7892C213.656 35.816 213.649 35.8422 213.637 35.8663C213.625 35.8903 213.608 35.9118 213.588 35.9294C213.567 35.947 213.544 35.9605 213.518 35.969C213.467 35.9862 213.411 35.9822 213.363 35.9579C185.931 21.9306 158.031 34.2411 130.996 46.1381C112.517 54.2561 93.6262 62.5783 74.7141 62.5783Z" fill="#263238"/>
<path opacity="0.4" d="M74.7134 70.7644C64.6234 70.8274 54.6958 68.2165 45.9356 63.1959C45.8886 63.1695 45.8539 63.1254 45.8392 63.0734C45.8246 63.0214 45.831 62.9657 45.8573 62.9185C45.8846 62.871 45.9295 62.8362 45.9822 62.8215C46.0349 62.8068 46.0913 62.8134 46.1392 62.84C74.3272 78.8143 103.037 66.1584 130.844 53.9159C158.197 41.8776 186.484 29.3996 214.364 44.1544C214.405 44.1841 214.433 44.2274 214.445 44.2764C214.456 44.3255 214.449 44.3769 214.426 44.4214C214.402 44.4659 214.364 44.5005 214.317 44.5187C214.27 44.537 214.218 44.5377 214.171 44.5208C186.505 29.8654 158.317 42.2806 131.027 54.2928C112.517 62.437 93.6203 70.7644 74.7134 70.7644Z" fill="#263238"/>
<path opacity="0.4" d="M74.709 78.9452C64.9214 79.0074 55.2812 76.553 46.7089 71.8164C46.6615 71.789 46.6268 71.744 46.6121 71.6911C46.5975 71.6383 46.6041 71.5818 46.6306 71.5338C46.6431 71.5099 46.6603 71.4888 46.6812 71.4719C46.7021 71.4549 46.7262 71.4423 46.7521 71.435C46.778 71.4276 46.8051 71.4257 46.8318 71.4291C46.8584 71.4326 46.8841 71.4415 46.9072 71.4553C74.8551 86.7649 103.309 74.2241 130.829 62.0968C158.443 49.9328 186.996 37.3501 215.117 52.7592C215.163 52.7857 215.198 52.8294 215.214 52.8811C215.229 52.9328 215.224 52.9885 215.2 53.0366C215.187 53.0604 215.17 53.0814 215.15 53.0985C215.129 53.1156 215.105 53.1285 215.079 53.1362C215.053 53.144 215.026 53.1466 215 53.1439C214.973 53.1412 214.947 53.1332 214.923 53.1204C186.976 37.8107 158.516 50.3463 130.996 62.4736C112.517 70.6178 93.6158 78.9452 74.709 78.9452Z" fill="#263238"/>
<path opacity="0.4" d="M74.7037 87.126C65.2224 87.1872 55.8747 84.8831 47.5023 80.4212C47.4541 80.3945 47.418 80.3503 47.4015 80.2977C47.385 80.2451 47.3893 80.1881 47.4136 80.1385C47.4401 80.0901 47.4845 80.0542 47.5373 80.0385C47.5901 80.0228 47.6469 80.0287 47.6955 80.0548C75.3615 94.7102 103.576 82.295 130.84 70.2776C158.704 57.9985 187.524 45.3007 215.926 61.3797C215.973 61.4061 216.007 61.4502 216.022 61.5022C216.037 61.5542 216.03 61.6099 216.004 61.6571C215.977 61.7046 215.932 61.7394 215.879 61.7541C215.826 61.7688 215.77 61.7622 215.722 61.7356C187.534 45.7613 158.793 58.4172 131.017 70.6335C112.523 78.7986 93.6158 87.126 74.7037 87.126Z" fill="#263238"/>
<path opacity="0.4" d="M74.7034 95.3121C65.5202 95.3774 56.4565 93.223 48.2798 89.0312C48.232 89.0056 48.196 88.9623 48.1794 88.9105C48.1628 88.8587 48.167 88.8025 48.1911 88.7538C48.2032 88.7296 48.22 88.708 48.2406 88.6904C48.2612 88.6727 48.285 88.6594 48.3108 88.6511C48.3365 88.6428 48.3637 88.6398 48.3906 88.6421C48.4176 88.6445 48.4438 88.6522 48.4677 88.6648C75.8936 102.687 103.8 90.3816 130.834 78.4793C158.959 66.0903 188.04 53.2721 216.687 70.0316C216.711 70.0451 216.732 70.0632 216.748 70.0848C216.764 70.1064 216.776 70.1311 216.783 70.1575C216.79 70.1838 216.792 70.2112 216.788 70.2381C216.784 70.2651 216.775 70.2909 216.76 70.3142C216.748 70.3376 216.73 70.3582 216.709 70.3746C216.688 70.3911 216.664 70.4031 216.638 70.4099C216.612 70.4168 216.585 70.4183 216.559 70.4145C216.532 70.4106 216.507 70.4014 216.484 70.3875C188.014 53.7118 159.027 66.4724 131.022 78.8352C112.522 86.9794 93.6103 95.3121 74.7034 95.3121Z" fill="#263238"/>
</g>
<path d="M66.6908 76.9405C66.4998 76.1808 66.0444 75.5144 65.4066 75.0615C65.0399 74.8024 64.7337 74.4665 64.5093 74.0769C64.2848 73.6874 64.1475 73.2536 64.1069 72.8056L64.2165 72.5021C64.2352 72.4507 64.2327 72.394 64.2097 72.3444C64.1867 72.2949 64.145 72.2565 64.0938 72.2377C64.0426 72.219 63.986 72.2214 63.9366 72.2445C63.8872 72.2676 63.8489 72.3094 63.8302 72.3607L59.6229 84.2682C59.4911 83.9762 59.301 83.7143 59.0643 83.4988C58.4747 82.9762 57.7518 82.6283 56.9763 82.4939C55.2381 82.1537 53.646 82.8027 53.4267 83.9385C53.2336 84.9172 54.121 85.9431 55.4782 86.4299C55.7046 86.5099 55.9367 86.5729 56.1725 86.6183C56.9385 86.7846 57.7356 86.7339 58.4745 86.4718C58.771 86.3833 59.0401 86.2206 59.2566 85.999C59.473 85.7774 59.6296 85.5042 59.7116 85.2051L62.6661 76.8777C62.8483 77.6583 63.3087 78.3451 63.9607 78.8091C64.3471 79.0827 64.6666 79.4406 64.8954 79.8557C65.1241 80.2709 65.2561 80.7327 65.2814 81.2063C65.2851 81.2342 65.2963 81.2606 65.3138 81.2827C65.3312 81.3048 65.3543 81.3218 65.3805 81.3319H65.4171C65.4514 81.3374 65.4866 81.3303 65.5163 81.3121C65.5459 81.2939 65.5681 81.2656 65.5789 81.2325L66.6229 78.2909C66.7847 77.8588 66.8084 77.3868 66.6908 76.9405Z" fill="#263238"/>
<path d="M183.379 53.9473C182.776 53.4402 182.01 53.1687 181.223 53.1831C180.774 53.1904 180.328 53.1007 179.917 52.9201C179.505 52.7395 179.137 52.4722 178.837 52.1363L178.743 51.8223C178.728 51.7699 178.692 51.7257 178.644 51.6993C178.596 51.6729 178.54 51.6663 178.488 51.681C178.435 51.6968 178.391 51.7325 178.365 51.7804C178.339 51.8283 178.332 51.8847 178.347 51.9374L181.943 64.1066C181.664 63.9461 181.355 63.8446 181.035 63.8083C180.251 63.732 179.46 63.877 178.754 64.227C177.141 64.9807 176.227 66.4515 176.718 67.5088C177.141 68.4195 178.472 68.7283 179.85 68.3148C180.08 68.2454 180.305 68.1597 180.523 68.0583C181.245 67.7395 181.864 67.2246 182.309 66.5719C182.498 66.3232 182.621 66.0305 182.667 65.7211C182.713 65.4117 182.679 65.0957 182.57 64.8027L180.048 56.2765C180.659 56.8031 181.441 57.0878 182.246 57.0773C182.721 57.0723 183.191 57.1746 183.621 57.3767C184.051 57.5788 184.431 57.8753 184.731 58.2445C184.751 58.2646 184.776 58.2791 184.803 58.2865C184.831 58.2938 184.86 58.2938 184.887 58.2863H184.924C184.954 58.269 184.978 58.2421 184.991 58.2099C185.004 58.1777 185.006 58.142 184.997 58.1084L184.104 55.0988C183.991 54.6473 183.737 54.244 183.379 53.9473Z" fill="#263238"/>
<path d="M102.546 74.6637C103.104 74.8908 103.604 75.2406 104.008 75.6872C104.413 76.1338 104.713 76.6659 104.885 77.2441C104.896 77.2789 104.918 77.3094 104.947 77.3318C104.975 77.3542 105.01 77.3674 105.047 77.3697C105.062 77.3749 105.078 77.3749 105.094 77.3697C105.138 77.3643 105.178 77.3443 105.209 77.313C105.241 77.2817 105.261 77.2409 105.266 77.197L105.543 74.6585C105.608 74.0841 105.497 73.5035 105.224 72.9941C104.764 72.1074 104.003 71.415 103.079 71.0418C102.549 70.8272 102.071 70.4999 101.679 70.0824C101.287 69.665 100.99 69.1673 100.808 68.6236L100.85 68.2101C100.857 68.1415 100.837 68.0727 100.794 68.0188C100.751 67.9648 100.689 67.9302 100.62 67.9223C100.586 67.9187 100.551 67.9219 100.518 67.9318C100.485 67.9417 100.454 67.9581 100.428 67.98C100.401 68.0019 100.379 68.0289 100.363 68.0594C100.346 68.0899 100.336 68.1234 100.333 68.1578L98.5948 84.1374C98.347 83.8158 98.0361 83.5486 97.6813 83.3523C96.8004 82.8756 95.8044 82.6545 94.8051 82.7137C93.806 82.7372 92.8326 83.036 91.9915 83.5773C91.6191 83.7523 91.3066 84.0336 91.0931 84.3861C90.8795 84.7385 90.7746 85.1463 90.7913 85.5583C90.808 85.9703 90.9457 86.3682 91.1871 86.702C91.4285 87.0358 91.7628 87.2908 92.1481 87.4348C92.7467 87.7685 93.408 87.9734 94.09 88.0367C94.3982 88.0736 94.7091 88.0841 95.0191 88.0681C97.2533 87.9792 99.0229 86.7282 98.9968 85.2679L99.738 78.4323C100.197 79.3452 100.971 80.0609 101.915 80.4474C102.771 80.8661 103.575 81.2691 104.253 83.0278C104.269 83.061 104.292 83.0898 104.321 83.1118C104.35 83.1337 104.384 83.148 104.42 83.1534H104.467C104.512 83.1484 104.553 83.1278 104.584 83.0952C104.614 83.0626 104.632 83.0201 104.634 82.9754L104.911 80.4421C104.982 79.8659 104.87 79.2819 104.593 78.7725C104.133 77.8858 103.372 77.1934 102.447 76.8202C101.916 76.6065 101.438 76.2795 101.046 75.8619C100.654 75.4443 100.357 74.9462 100.176 74.402L100.37 72.6486C100.825 73.5645 101.6 74.2813 102.546 74.6637Z" fill="#263238"/>
<path d="M87.9621 67.2366L88.3954 58.166L88.5572 54.7848V54.5911L79.3439 54.1515V54.3399L79.1821 57.7263L78.7906 66.0223C78.4205 65.669 77.974 65.4063 77.4859 65.2547C76.9979 65.1031 76.4814 65.0666 75.977 65.1482C74.3484 65.3157 73.1112 66.3207 73.2156 67.3884C73.3096 68.3044 74.3692 68.9586 75.7056 69.0424C75.9262 69.0605 76.1479 69.0605 76.3685 69.0424C77.9867 68.8801 79.2134 67.8961 79.1299 66.8388L79.5005 59.0453L87.9621 59.4484L87.6333 66.4568C87.4379 66.2365 87.1999 66.0584 86.9338 65.9333C86.2735 65.628 85.5417 65.5121 84.8197 65.5984C83.191 65.7659 81.9539 66.7656 82.0583 67.8333C82.1523 68.7545 83.2119 69.4035 84.5482 69.4925C84.7689 69.5106 84.9906 69.5106 85.2112 69.4925C86.8137 69.2831 88.0456 68.2939 87.9621 67.2366ZM79.511 58.6475L79.5527 57.7421L88.0143 58.1503L87.9726 59.0506L79.511 58.6475Z" fill="#263238"/>
<path d="M211.316 49.7863L212.203 42.5109L212.532 39.7997V39.6479L205.146 38.7319V38.889L204.812 41.6002L203.997 48.2579C203.721 47.9511 203.377 47.7129 202.993 47.5621C202.609 47.4113 202.195 47.3521 201.784 47.3891C200.464 47.4205 199.409 48.1585 199.43 49.0221C199.43 49.7653 200.265 50.3725 201.335 50.5033C201.509 50.5161 201.684 50.5161 201.857 50.5033C203.168 50.4667 204.217 49.7444 204.212 48.8912L204.974 42.6418L211.76 43.474L211.076 49.0954C210.937 48.9033 210.759 48.7428 210.554 48.6243C210.043 48.3391 209.462 48.2032 208.878 48.2317C207.552 48.2684 206.498 49.0012 206.519 49.8648C206.519 50.608 207.354 51.2152 208.424 51.346C208.598 51.3587 208.772 51.3587 208.946 51.346C210.272 51.3617 211.316 50.6394 211.316 49.7863ZM205.026 42.3644L205.109 41.6421L211.895 42.4743L211.812 43.1966L205.026 42.3644Z" fill="#263238"/>
<path d="M184.156 33.053L179.745 23.9667L178.101 20.575L178.002 20.4128L168.768 24.9193L168.856 25.1077L170.506 28.4994L174.536 36.811C173.685 36.4813 172.448 36.7011 171.331 37.4653C169.822 38.5121 169.149 40.1399 169.822 41.1291C170.401 41.9771 171.795 42.066 173.132 41.417C173.356 41.3095 173.57 41.1834 173.774 41.0402C175.261 40.0195 175.935 38.4231 175.293 37.4077L170.882 28.3214L179.364 24.1813L183.399 32.4511C182.548 32.1213 181.311 32.3412 180.189 33.1053C179.511 33.5515 178.97 34.1763 178.623 34.9111C178.451 35.193 178.365 35.5187 178.374 35.8489C178.383 36.1791 178.487 36.4996 178.673 36.7718C178.86 37.0441 179.121 37.2564 179.425 37.3831C179.729 37.5099 180.063 37.5457 180.387 37.4862C180.933 37.4522 181.466 37.3061 181.953 37.0571C182.18 36.9476 182.398 36.8217 182.606 36.6802C184.125 35.6648 184.788 34.0213 184.156 33.053Z" fill="#263238"/>
<path d="M153.745 78.9976C153.312 78.9976 152.853 78.9976 152.378 78.9452C149.214 78.694 146.432 77.0662 144.099 74.1142C137.088 65.2163 136.243 47.253 136.932 42.7622L137.214 42.8041C136.53 47.2687 137.365 65.1221 144.323 73.9362C146.604 76.8254 149.319 78.4113 152.399 78.6469C157.175 79.029 160.636 77.4064 162.405 73.9624C165.198 68.5242 163.068 59.3542 157.441 52.6336C155.635 50.4772 155.024 48.1428 155.766 46.2324C156.031 45.5339 156.482 44.9213 157.068 44.4602C157.655 43.9991 158.356 43.707 159.096 43.6153C161.121 43.3432 163.225 44.4633 164.838 46.6825L164.608 46.85C163.042 44.7197 161.043 43.6415 159.117 43.898C158.428 43.9827 157.776 44.254 157.229 44.6829C156.683 45.1117 156.263 45.6818 156.016 46.3318C155.311 48.148 155.907 50.3777 157.645 52.4504C163.434 59.3646 165.532 68.4666 162.64 74.0933C161.481 76.4172 158.992 78.9976 153.745 78.9976Z" fill="#407BFF"/>
<path d="M126.063 24.6838C122.409 26.4215 117.518 27.6829 119.068 34.2673C120.619 40.8518 116.49 42.7988 119.59 45.3688C122.691 47.9387 133.522 47.7032 137.688 46.0858C142.386 44.2592 147.82 38.0882 142.522 34.9321C138.387 32.4721 136.592 29.2898 135.991 27.3532C134.765 23.4014 130.542 21.1665 126.063 24.6838Z" fill="#263238"/>
<path d="M146.499 34.6756C142.475 33.8538 138.44 32.3569 136.216 27.0339C135.323 24.8984 133.909 23.5532 132.223 23.2496C130.317 22.9094 128.182 23.8777 126.225 25.9818L126.016 25.7829C128.041 23.6108 130.26 22.6058 132.28 22.9722C134.065 23.2915 135.558 24.6942 136.487 26.9239C138.659 32.1214 142.616 33.5869 146.567 34.3929L146.499 34.6756Z" fill="#263238"/>
<path d="M144.97 54.2928L145.164 54.4969L145.419 54.7586C145.602 54.9314 145.779 55.1146 145.978 55.2821C146.359 55.638 146.771 55.9782 147.189 56.3289C148.025 57.0132 148.896 57.6527 149.799 58.2445C150.718 58.8464 151.678 59.396 152.644 59.9351C153.166 60.1864 153.625 60.4585 154.131 60.6993L155.301 61.2593C155.469 61.3228 155.655 61.3228 155.823 61.2593C156.179 61.129 156.512 60.9416 156.809 60.7045C157.606 60.068 158.323 59.3368 158.944 58.5272C160.322 56.7393 161.562 54.8496 162.656 52.8744L164.843 53.7694C164.128 56.1502 163.127 58.4351 161.862 60.5737C161.181 61.7278 160.347 62.7841 159.383 63.7141C158.801 64.2673 158.135 64.7232 157.41 65.0645C156.492 65.4976 155.464 65.6365 154.466 65.4623C154.206 65.4158 153.951 65.3475 153.703 65.2582L153.223 65.0802L152.357 64.7452C151.772 64.5254 151.208 64.2585 150.639 64.0125C149.5 63.4877 148.39 62.9006 147.314 62.2538C146.23 61.598 145.184 60.8798 144.182 60.1026C143.66 59.6996 143.19 59.2861 142.71 58.836C142.47 58.6161 142.23 58.3806 141.995 58.1398L141.645 57.763C141.52 57.6217 141.426 57.517 141.249 57.3024L144.97 54.2928Z" fill="#FFBF9C"/>
<path d="M141.149 49.9172C143.081 49.4461 147.987 55.8107 147.987 55.8107L145.007 61.5001C145.007 61.5001 136.764 56.8366 137.078 54.2667C137.401 51.5921 138.33 50.6081 141.149 49.9172Z" fill="#407BFF"/>
<path opacity="0.2" d="M141.149 49.9172C143.081 49.4461 147.987 55.8107 147.987 55.8107L145.007 61.5001C145.007 61.5001 136.764 56.8366 137.078 54.2667C137.401 51.5921 138.33 50.6081 141.149 49.9172Z" fill="white"/>
<path opacity="0.2" d="M142.422 52.1207L141.953 59.5687C143.592 60.6941 145.006 61.5001 145.006 61.5001L145.628 60.3067L142.422 52.1207Z" fill="black"/>
<path d="M162.238 54.0887L164.034 49.0902L166.587 53.0995C166.587 53.0995 165.156 55.7165 163.214 55.7165L162.238 54.0887Z" fill="#FFBF9C"/>
<path d="M166.628 46.7767L169.254 49.7758L166.586 53.0942L164.034 49.0902L166.628 46.7767Z" fill="#FFBF9C"/>
<path d="M136.874 181.878L141.525 182.061L142.355 171.227L137.704 171.044L136.874 181.878Z" fill="#FFBF9C"/>
<path d="M91.5691 117.751L90.6504 122.336L100.955 125.942L101.868 121.352L91.5691 117.751Z" fill="#FFBF9C"/>
<path d="M91.4444 123L93.2192 118.054C93.2526 117.97 93.2534 117.876 93.2216 117.791C93.1897 117.705 93.1275 117.635 93.0469 117.594L89.3511 115.62C89.256 115.572 89.1515 115.544 89.0449 115.54C88.9382 115.535 88.8318 115.554 88.7328 115.594C88.6339 115.634 88.5447 115.695 88.4712 115.773C88.3978 115.85 88.3419 115.943 88.3071 116.044C87.7121 117.777 87.5137 118.661 86.7411 120.818C86.2557 122.158 85.076 124.644 84.413 126.486C83.7501 128.329 85.5353 129.103 85.979 128.386C87.9626 125.204 89.5182 124.445 90.9067 123.639C91.1531 123.493 91.3427 123.268 91.4444 123Z" fill="#263238"/>
<path d="M141.682 181.784L136.634 180.366C136.548 180.339 136.454 180.346 136.372 180.384C136.29 180.423 136.225 180.491 136.191 180.575L134.494 184.417C134.456 184.517 134.44 184.624 134.446 184.73C134.452 184.837 134.481 184.942 134.53 185.036C134.58 185.131 134.648 185.215 134.732 185.281C134.816 185.347 134.913 185.395 135.016 185.422C136.78 185.882 137.657 186.018 139.881 186.641C141.243 187.023 145.237 188.829 147.189 188.986C149.141 189.143 149.397 187.212 148.598 186.971C146.024 186.209 143.812 184.535 142.376 182.26C142.209 182.023 141.963 181.854 141.682 181.784Z" fill="#263238"/>
<g opacity="0.2">
<path opacity="0.2" d="M142.355 171.227L141.927 176.812L137.276 176.634L137.699 171.049L142.355 171.227Z" fill="black"/>
<path opacity="0.2" d="M101.869 121.352L100.95 125.942L95.6416 124.078L96.5603 119.493L101.869 121.352Z" fill="black"/>
</g>
<path d="M143.587 51.8642C144.036 54.5126 144.469 61.1913 142.543 76.7469L123.631 77.9193C123.484 70.6492 123.109 64.7871 119.178 50.7022C119.08 50.3554 119.06 49.9909 119.121 49.6356C119.182 49.2803 119.321 48.9431 119.529 48.6489C119.737 48.3547 120.008 48.1109 120.322 47.9354C120.636 47.76 120.985 47.6574 121.344 47.6351C122.785 47.5513 124.596 47.4938 126.444 47.5723C129.36 47.6362 132.267 47.902 135.146 48.3679C137.599 48.8075 140.288 49.488 141.848 49.9119C142.294 50.0358 142.695 50.2857 143.004 50.6319C143.312 50.9781 143.514 51.4059 143.587 51.8642Z" fill="#407BFF"/>
<path opacity="0.2" d="M143.587 51.8642C144.036 54.5126 144.469 61.1913 142.543 76.7469L123.631 77.9193C123.484 70.6492 123.109 64.7871 119.178 50.7022C119.08 50.3554 119.06 49.9909 119.121 49.6356C119.182 49.2803 119.321 48.9431 119.529 48.6489C119.737 48.3547 120.008 48.1109 120.322 47.9354C120.636 47.76 120.985 47.6574 121.344 47.6351C122.785 47.5513 124.596 47.4938 126.444 47.5723C129.36 47.6362 132.267 47.902 135.146 48.3679C137.599 48.8075 140.288 49.488 141.848 49.9119C142.294 50.0358 142.695 50.2857 143.004 50.6319C143.312 50.9781 143.514 51.4059 143.587 51.8642Z" fill="white"/>
<path d="M142.506 76.7469C142.506 76.7469 148.399 112.496 148.968 126.753C149.563 141.586 142.913 175.315 142.913 175.315H136.623C136.623 175.315 138.925 143.115 137.474 128.601C135.908 112.778 128.678 77.6053 128.678 77.6053L142.506 76.7469Z" fill="#407BFF"/>
<path d="M136.075 175.545H143.482L144.025 173.174L135.73 172.886L136.075 175.545Z" fill="#263238"/>
<path opacity="0.2" d="M134.921 86.2049C140.141 95.2859 137.484 112.611 136.231 119.075C134.801 109.575 132.661 97.9867 131.011 89.4814C131.434 84.5875 132.515 82.0176 134.921 86.2049Z" fill="black"/>
<path d="M137.537 77.061C137.537 77.061 137.401 114.746 131.649 125.8C124.816 138.886 96.4766 125.403 96.4766 125.403L97.7294 119.122C97.7294 119.122 116.521 123.367 121.433 119.855C126.716 103.441 117.007 89.4971 123.615 77.8984L137.537 77.061Z" fill="#407BFF"/>
<path d="M97.8335 118.4L96.2832 126.156L98.5487 127.475L100.783 118.426L97.8335 118.4Z" fill="#263238"/>
<path d="M123.636 53.9474C122.785 56.2765 121.929 58.658 121.115 61.0343C120.301 63.4106 119.549 65.7921 118.886 68.1683L118.766 68.6132L118.708 68.8383C118.708 68.9116 118.661 69.011 118.672 68.9534V68.7074C118.674 68.6638 118.674 68.6202 118.672 68.5766C118.661 68.495 118.644 68.4144 118.62 68.3358C118.607 68.2945 118.591 68.2542 118.573 68.2154C118.551 68.1557 118.525 68.098 118.494 68.0427C118.431 67.9191 118.354 67.8032 118.265 67.6972C118.163 67.5673 118.041 67.4542 117.905 67.3623C117.785 67.2748 117.655 67.2027 117.518 67.1477C117.41 67.1061 117.298 67.0729 117.184 67.0482C117.1 67.0254 117.015 67.008 116.928 66.9959C116.793 66.9908 116.657 67.0067 116.526 67.043C116.432 67.0796 116.495 67.0692 116.568 67.043C116.663 67.0041 116.755 66.9604 116.845 66.9121C117.054 66.797 117.289 66.6557 117.523 66.4987C118.479 65.8653 119.481 65.1064 120.457 64.3422C122.42 62.8034 124.393 61.2018 126.371 59.6054L128.047 61.2751C126.426 63.2985 124.699 65.2343 122.874 67.0744C121.937 68.0306 120.948 68.9357 119.914 69.7856C119.638 70.0055 119.35 70.2253 119.022 70.4504C118.849 70.5603 118.677 70.6754 118.463 70.7906C118.199 70.9412 117.919 71.0606 117.628 71.1465C117.343 71.2288 117.047 71.2659 116.751 71.2564C116.623 71.2532 116.495 71.2392 116.37 71.2145C116.216 71.1883 116.065 71.1444 115.921 71.0837C115.747 71.0126 115.583 70.9213 115.43 70.8115C115.264 70.6933 115.113 70.5544 114.981 70.398C114.868 70.2592 114.77 70.1082 114.689 69.9479C114.652 69.8746 114.611 69.7804 114.59 69.7228L114.527 69.5449C114.494 69.4278 114.468 69.309 114.449 69.189C114.444 69.1053 114.444 69.0214 114.449 68.9377C114.438 68.8001 114.438 68.6619 114.449 68.5242V68.3463V68.2154C114.48 68.0008 114.496 67.9485 114.512 67.8647L114.559 67.624L114.658 67.1372C115.18 64.5202 115.874 62.034 116.641 59.5531C117.409 57.0721 118.233 54.6435 119.204 52.1992L123.636 53.9474Z" fill="#FFBF9C"/>
<path d="M119.825 47.8811C117.967 48.5772 116.093 55.2611 116.093 55.2611L123.771 60.0765C123.771 60.0765 126.214 53.6281 125.264 51.2204C124.278 48.7133 121.95 47.1065 119.825 47.8811Z" fill="#407BFF"/>
<path opacity="0.2" d="M119.825 47.8811C117.967 48.5772 116.093 55.2611 116.093 55.2611L123.771 60.0765C123.771 60.0765 126.214 53.6281 125.264 51.2204C124.278 48.7133 121.95 47.1065 119.825 47.8811Z" fill="white"/>
<path d="M90.0404 125.094C90.0404 125.094 90.0404 125.131 90.0404 125.151C90.0839 125.25 90.1517 125.336 90.2376 125.401C90.3235 125.466 90.4245 125.508 90.5311 125.523C90.5958 125.54 90.6637 125.539 90.728 125.52C90.7922 125.502 90.8504 125.467 90.8965 125.418C91.3141 124.994 90.933 123.325 90.8965 123.157C90.8923 123.136 90.8815 123.116 90.8656 123.101C90.8496 123.086 90.8294 123.076 90.8078 123.074C90.7869 123.071 90.7657 123.073 90.7464 123.082C90.727 123.09 90.7103 123.103 90.6981 123.121C90.3797 123.644 89.8682 124.57 90.0404 125.094ZM90.7503 123.471C90.8861 124.136 90.98 125.042 90.7503 125.267C90.7284 125.287 90.7012 125.302 90.6718 125.308C90.6424 125.314 90.6118 125.313 90.5833 125.303C90.5127 125.294 90.4455 125.267 90.388 125.225C90.3306 125.183 90.2846 125.127 90.2544 125.062C90.1448 124.785 90.3066 124.199 90.7503 123.487V123.471Z" fill="#407BFF"/>
<path d="M90.734 123.388C90.9062 123.942 91.4909 124.874 91.9659 124.958C92.0529 124.97 92.1414 124.952 92.2172 124.907C92.2929 124.863 92.3515 124.794 92.3835 124.712C92.4197 124.635 92.4385 124.551 92.4385 124.466C92.4385 124.381 92.4197 124.297 92.3835 124.22C92.1329 123.586 90.8697 123.126 90.8175 123.105C90.801 123.095 90.782 123.089 90.7627 123.089C90.7433 123.089 90.7243 123.095 90.7079 123.105C90.6942 123.118 90.6838 123.135 90.6774 123.153C90.6711 123.171 90.669 123.191 90.6713 123.21C90.6886 123.27 90.7095 123.33 90.734 123.388ZM92.2112 124.324C92.2263 124.37 92.2318 124.418 92.2273 124.466C92.2228 124.514 92.2084 124.56 92.1851 124.602C92.1225 124.727 92.0546 124.733 92.0024 124.727C91.6788 124.68 91.1463 123.921 90.9584 123.382C91.3708 123.56 92.0442 123.906 92.1956 124.293C92.1982 124.305 92.2035 124.315 92.2112 124.324Z" fill="#407BFF"/>
<path d="M143.148 183.045C143.523 183.188 143.935 183.2 144.317 183.077C144.406 183.032 144.483 182.966 144.542 182.885C144.6 182.804 144.637 182.71 144.651 182.611C144.665 182.551 144.663 182.489 144.646 182.43C144.628 182.372 144.596 182.319 144.552 182.276C144.088 181.815 142.036 182.229 141.807 182.276C141.784 182.282 141.764 182.293 141.748 182.31C141.733 182.327 141.722 182.348 141.718 182.37C141.716 182.393 141.721 182.415 141.732 182.435C141.743 182.455 141.76 182.471 141.78 182.48C142.218 182.71 142.676 182.899 143.148 183.045ZM144.192 182.339C144.262 182.353 144.327 182.385 144.38 182.433C144.398 182.45 144.412 182.471 144.419 182.495C144.427 182.519 144.427 182.545 144.422 182.569C144.412 182.634 144.387 182.696 144.349 182.75C144.311 182.803 144.261 182.847 144.202 182.878C143.863 183.045 143.112 182.878 142.161 182.433C142.833 182.285 143.525 182.253 144.208 182.339H144.192Z" fill="#407BFF"/>
<path d="M141.801 182.496H141.843C142.449 182.407 143.78 181.732 143.837 181.198C143.837 181.072 143.811 180.899 143.524 180.784C143.423 180.739 143.314 180.716 143.203 180.716C143.092 180.716 142.983 180.739 142.882 180.784C142.188 181.093 141.744 182.281 141.723 182.328C141.714 182.345 141.71 182.364 141.71 182.383C141.71 182.402 141.714 182.421 141.723 182.438C141.731 182.453 141.742 182.466 141.756 182.476C141.769 182.486 141.785 182.493 141.801 182.496ZM143.367 180.967H143.435C143.623 181.046 143.613 181.124 143.608 181.151C143.576 181.475 142.642 182.035 142.005 182.197C142.187 181.696 142.523 181.265 142.966 180.967C143.098 180.916 143.245 180.916 143.378 180.967H143.367Z" fill="#407BFF"/>
<path d="M123.265 76.8254L122.884 78.5527C122.827 78.6888 122.989 78.8144 123.208 78.7987L142.673 77.5948C142.846 77.5948 142.981 77.4902 142.986 77.3855L143.054 75.674C143.054 75.5588 142.903 75.4646 142.715 75.4803L123.563 76.6632C123.503 76.6617 123.445 76.676 123.392 76.7044C123.34 76.7329 123.296 76.7746 123.265 76.8254Z" fill="white"/>
<path d="M125.969 78.8144L125.447 78.8458C125.348 78.8458 125.265 78.8039 125.27 78.7411L125.374 76.5166C125.374 76.4538 125.463 76.3962 125.567 76.391L126.089 76.3544C126.188 76.3544 126.272 76.3962 126.267 76.4643L126.162 78.6835C126.157 78.7463 126.068 78.8091 125.969 78.8144Z" fill="#407BFF"/>
<path d="M141.243 77.867L140.721 77.8984C140.622 77.8984 140.538 77.8565 140.544 77.7937L140.648 75.5745C140.648 75.5064 140.737 75.4489 140.836 75.4436L141.358 75.4122C141.457 75.4122 141.541 75.4541 141.536 75.5169L141.431 77.7362C141.431 77.8042 141.348 77.8618 141.243 77.867Z" fill="#407BFF"/>
<path d="M133.632 78.3381L133.11 78.3747C133.006 78.3747 132.927 78.3328 132.927 78.2648L133.032 76.0456C133.032 75.9775 133.12 75.9199 133.225 75.9147L133.747 75.8833C133.851 75.8833 133.929 75.9252 133.929 75.988L133.825 78.2125C133.794 78.2753 133.71 78.3328 133.632 78.3381Z" fill="#407BFF"/>
<path d="M126.429 47.6299C129.344 47.6921 132.252 47.9561 135.131 48.4202C136.175 48.6034 137.271 48.8389 138.299 49.0745C138.847 50.7755 139.228 54.2509 137.699 57.1192C137.485 56.5682 137.161 56.0668 136.748 55.6456C136.334 55.2244 135.839 54.8923 135.292 54.6697C134.437 55.4683 133.786 56.4608 133.392 57.5641C131.362 57.1977 125.896 52.44 123.401 48.6086L122.754 47.6194C123.887 47.5513 125.15 47.5461 126.429 47.6299Z" fill="white"/>
<path d="M126.695 38.0149C127.416 40.8256 128.261 45.934 126.429 47.5985C126.429 47.5985 127.369 50.4719 132.568 50.943C138.31 51.4664 135.131 48.394 135.131 48.394C131.962 47.3472 131.905 45.0966 132.317 42.9977L126.695 38.0149Z" fill="#FFBF9C"/>
<path d="M126.434 47.6299C129.348 47.6869 132.254 47.951 135.131 48.4202L135.7 48.5249C136.477 49.8858 136.712 51.4298 135.225 54.2039C135.225 54.2039 127.473 50.9535 125.307 47.5985L126.434 47.6299Z" fill="#FFBF9C"/>
<path opacity="0.2" d="M128.986 40.0509L132.311 42.9977C132.208 43.4902 132.15 43.9914 132.139 44.4947C130.933 44.2173 128.95 43.0187 128.746 41.773C128.708 41.1885 128.789 40.6024 128.986 40.0509Z" fill="black"/>
<path d="M123.004 34.6232C124.659 38.9623 125.265 40.8361 128.224 42.4063C132.646 44.7668 137.62 41.7834 137.271 37.0414C136.978 32.7704 134.326 26.3953 129.441 25.987C128.367 25.8908 127.287 26.0716 126.303 26.5122C125.319 26.9527 124.464 27.6384 123.819 28.504C123.174 29.3696 122.76 30.3863 122.618 31.4574C122.475 32.5285 122.608 33.6183 123.004 34.6232Z" fill="#FFBF9C"/>
<path d="M129.791 34.953L129.404 34.9111C129.503 34.4038 129.772 33.9457 130.166 33.6131C130.254 33.5214 130.365 33.4558 130.488 33.4233C130.61 33.3909 130.739 33.3929 130.86 33.4291C130.982 33.4654 131.091 33.5344 131.176 33.6287C131.26 33.7231 131.318 33.839 131.341 33.9637L130.97 34.0841C130.959 34.0234 130.933 33.9664 130.895 33.918C130.857 33.8696 130.807 33.8314 130.751 33.8067C130.689 33.7972 130.626 33.8022 130.566 33.8212C130.506 33.8403 130.452 33.873 130.407 33.9166C130.095 34.1866 129.879 34.55 129.791 34.953Z" fill="#263238"/>
<path d="M134.154 32.9222C134.133 32.8141 134.135 32.7027 134.162 32.5957C134.188 32.4888 134.238 32.389 134.307 32.3035C134.376 32.218 134.463 32.1489 134.562 32.1011C134.661 32.0534 134.77 32.0281 134.88 32.0272C135.078 32.0107 135.276 32.055 135.449 32.154C135.621 32.2531 135.759 32.4023 135.845 32.582L135.506 32.7704C135.456 32.6567 135.371 32.5614 135.265 32.4977C135.158 32.4339 135.035 32.4049 134.911 32.4145C134.854 32.4161 134.798 32.429 134.746 32.4523C134.694 32.4757 134.647 32.5091 134.608 32.5506C134.575 32.597 134.552 32.6499 134.54 32.7057C134.529 32.7616 134.529 32.8192 134.54 32.8751L134.154 32.9222Z" fill="#263238"/>
<path d="M133.419 33.3566C133.995 34.0795 134.667 34.7189 135.418 35.2565C135.275 35.4447 135.094 35.5997 134.886 35.7109C134.677 35.822 134.448 35.8866 134.212 35.9003L133.419 33.3566Z" fill="#ED893E"/>
<path d="M132.693 37.9259C132.87 37.8968 133.045 37.853 133.215 37.7951C133.228 37.7909 133.241 37.7841 133.252 37.7749C133.263 37.7657 133.272 37.7544 133.278 37.7417C133.284 37.7289 133.288 37.715 133.289 37.7008C133.29 37.6866 133.288 37.6724 133.283 37.659C133.273 37.6321 133.254 37.6097 133.229 37.5961C133.204 37.5826 133.175 37.5789 133.147 37.5857C132.704 37.7379 132.231 37.7821 131.767 37.7148C131.303 37.6474 130.862 37.4704 130.48 37.1984C130.457 37.1796 130.427 37.1708 130.398 37.1737C130.369 37.1767 130.342 37.1912 130.323 37.2141C130.304 37.237 130.295 37.2664 130.298 37.2958C130.301 37.3253 130.316 37.3524 130.339 37.3711C130.675 37.6154 131.056 37.7903 131.46 37.8855C131.864 37.9808 132.283 37.9945 132.693 37.9259Z" fill="#263238"/>
<path d="M122.899 38.575C123.452 39.2823 124.26 39.743 125.149 39.8573C126.329 39.9934 126.715 38.8942 126.251 37.8736C125.817 36.9576 124.685 35.78 123.573 36.115C123.332 36.1923 123.115 36.3286 122.94 36.5114C122.765 36.6943 122.639 36.9179 122.572 37.1622C122.505 37.4064 122.5 37.6635 122.557 37.9102C122.614 38.1569 122.732 38.3853 122.899 38.575Z" fill="#FFBF9C"/>
<path d="M130.5 25.9661C133.914 28.4942 129.608 28.8187 127.447 30.6768C125.359 32.4616 126.972 35.3874 123.432 36.5599C122.352 36.8195 121.244 36.9478 120.133 36.9419C120.133 36.9419 121.772 33.7282 121.25 31.7969C120.728 29.8655 126.59 23.0298 130.5 25.9661Z" fill="#263238"/>
<path d="M129.916 25.5997C130.642 27.17 132.448 26.8507 133.894 28.4523C134.781 29.4311 136.217 26.1284 133.931 24.9874C131.644 23.8463 128.778 23.1397 129.916 25.5997Z" fill="#263238"/>
<path d="M126.204 37.345C126.69 39.1926 126.481 40.8518 124.638 41.3385C124.199 41.4537 123.742 41.481 123.292 41.4188C122.843 41.3567 122.41 41.2065 122.018 40.9766C121.626 40.7467 121.284 40.4417 121.01 40.079C120.736 39.7163 120.535 39.3031 120.421 38.8628C120.306 38.4226 120.279 37.964 120.34 37.5132C120.402 37.0624 120.552 36.6282 120.782 36.2355C121.011 35.8428 121.315 35.4992 121.677 35.2244C122.038 34.9496 122.451 34.7488 122.89 34.6337C124.727 34.1522 125.719 35.4921 126.204 37.345Z" fill="#407BFF"/>
<path d="M126.283 24.5163L124.023 25.6154C119.643 29.1798 122.149 35.7119 122.149 35.7119L123.855 34.932C123.855 34.932 121.903 28.0754 126.283 24.5163Z" fill="#407BFF"/>
<path d="M122.148 35.8532H122.091C122.055 35.8384 122.027 35.8102 122.012 35.7747C121.986 35.7067 119.522 29.1013 123.928 25.516L126.22 24.3959C126.251 24.3802 126.287 24.3769 126.321 24.3865C126.355 24.3962 126.384 24.4182 126.402 24.4482C126.421 24.4776 126.429 24.5127 126.424 24.5473C126.419 24.5818 126.402 24.6135 126.376 24.6366C122.117 28.1016 123.975 34.8326 123.996 34.9006C124.004 34.934 124 34.969 123.986 35.0002C123.972 35.0314 123.948 35.0571 123.918 35.0734L122.206 35.8532H122.148ZM125.489 25.0606L124.085 25.7463C120.217 28.8867 121.903 34.5447 122.226 35.5183L123.688 34.8483C123.469 33.9742 122.279 28.4784 125.489 25.0606Z" fill="#407BFF"/>
<path opacity="0.3" d="M124.237 37.8579C124.607 39.2868 124.555 40.543 123.454 40.8308C122.352 41.1187 121.162 40.1923 120.786 38.7634C120.41 37.3345 121 35.937 122.102 35.623C123.203 35.3089 123.876 36.429 124.237 37.8579Z" fill="white"/>
<path d="M127.927 33.4403C127.971 33.4291 128.011 33.4037 128.041 33.3678C128.07 33.332 128.087 33.2877 128.088 33.2415C128.151 32.1946 129.268 31.5142 129.279 31.509C129.328 31.4784 129.364 31.4293 129.378 31.3724C129.392 31.3154 129.382 31.2554 129.352 31.2054C129.321 31.1554 129.272 31.1196 129.215 31.1059C129.159 31.0922 129.099 31.1016 129.049 31.1321C128.992 31.1635 127.728 31.9643 127.65 33.2258C127.648 33.2546 127.651 33.2837 127.661 33.3112C127.67 33.3386 127.684 33.3641 127.703 33.3859C127.722 33.4078 127.745 33.4258 127.771 33.4387C127.797 33.4516 127.825 33.4593 127.854 33.4613L127.927 33.4403Z" fill="#263238"/>
<path d="M135.35 29.766C135.388 29.7662 135.426 29.7561 135.459 29.7368C135.492 29.7175 135.519 29.6896 135.538 29.6561C135.553 29.6311 135.563 29.6033 135.567 29.5744C135.571 29.5455 135.57 29.5161 135.562 29.4879C135.555 29.4596 135.542 29.4331 135.525 29.4098C135.507 29.3866 135.485 29.3671 135.46 29.3525C135.159 29.1704 134.819 29.063 134.469 29.0393C134.118 29.0157 133.767 29.0764 133.445 29.2164C133.392 29.2428 133.352 29.2891 133.334 29.345C133.315 29.401 133.319 29.462 133.346 29.5148C133.372 29.5675 133.418 29.6076 133.474 29.6263C133.53 29.6449 133.591 29.6406 133.643 29.6142C133.899 29.5056 134.177 29.4603 134.455 29.4822C134.732 29.5041 134.999 29.5924 135.235 29.7398C135.272 29.7559 135.311 29.7648 135.35 29.766Z" fill="#263238"/>
<path d="M125.802 60.6103L125.05 55.6118L129.091 58.098C129.091 58.098 128.95 61.1023 127.201 61.9346L125.802 60.6103Z" fill="#FFBF9C"/>
<path d="M126.491 53.0837L130.265 54.4551L129.106 58.098L125.066 55.6118L126.491 53.0837Z" fill="#FFBF9C"/>
<path d="M165.192 46.4207L162.822 48.207C162.69 48.306 162.664 48.493 162.763 48.6247L166.74 53.93C166.838 54.0617 167.025 54.0882 167.156 53.9892L169.526 52.203C169.658 52.104 169.684 51.9169 169.585 51.7852L165.609 46.48C165.51 46.3483 165.323 46.3217 165.192 46.4207Z" fill="#407BFF"/>
<path d="M165.388 47.0867L163.406 48.5805C163.3 48.6604 163.279 48.8113 163.359 48.9176L165.441 51.6957C165.521 51.802 165.671 51.8234 165.777 51.7435L167.759 50.2497C167.865 50.1699 167.887 50.0189 167.807 49.9126L165.725 47.1345C165.645 47.0282 165.494 47.0068 165.388 47.0867Z" fill="white"/>
<path d="M165.934 53.1256L165.902 52.4714L166.565 52.0788C166.906 51.878 167.218 51.6295 167.489 51.3408L167.719 51.1001L167.573 50.8855C167.493 50.7691 167.377 50.6822 167.243 50.6378C167.109 50.5934 166.965 50.594 166.831 50.6395L166.273 50.8279L163.47 51.21V52.4033L164.368 53.6333L165.934 53.1256Z" fill="#FFBF9C"/>
</svg>
