<svg width="130" height="133" viewBox="0 0 130 133" fill="none" xmlns="http://www.w3.org/2000/svg">
<path d="M88.8385 133C107.279 133 122.228 118.22 122.228 99.9882C122.228 81.7562 107.279 66.9763 88.8385 66.9763C70.3978 66.9763 55.4487 81.7562 55.4487 99.9882C55.4487 118.22 70.3978 133 88.8385 133Z" fill="#030303"/>
<path d="M67.8177 102.638C68.6469 101.657 69.6841 100.867 70.8558 100.325C72.0275 99.7835 73.3053 99.5027 74.5988 99.5027C75.8924 99.5027 77.1702 99.7835 78.3419 100.325C79.5136 100.867 80.5508 101.657 81.38 102.638C82.799 101.299 83.7797 99.5702 84.1959 97.6748C84.612 95.7794 84.4445 93.8042 83.7148 92.0039C82.9852 90.2035 81.7269 88.6604 80.1021 87.5735C78.4773 86.4867 76.5606 85.9058 74.5988 85.9058C72.6371 85.9058 70.7203 86.4867 69.0956 87.5735C67.4708 88.6604 66.2125 90.2035 65.4829 92.0039C64.7532 93.8042 64.5857 95.7794 65.0018 97.6748C65.418 99.5702 66.3987 101.299 67.8177 102.638Z" fill="white"/>
<path d="M94.3333 102.638C95.1626 101.657 96.1997 100.867 97.3714 100.325C98.5432 99.7835 99.8209 99.5027 101.114 99.5027C102.408 99.5027 103.686 99.7835 104.858 100.325C106.029 100.867 107.066 101.657 107.896 102.638C109.315 101.299 110.295 99.5702 110.711 97.6748C111.128 95.7794 110.96 93.8042 110.23 92.0039C109.501 90.2035 108.242 88.6604 106.618 87.5735C104.993 86.4867 103.076 85.9058 101.114 85.9058C99.1527 85.9058 97.236 86.4867 95.6112 87.5735C93.9864 88.6604 92.7281 90.2035 91.9985 92.0039C91.2689 93.8042 91.1013 95.7794 91.5174 97.6748C91.9336 99.5702 92.9143 101.299 94.3333 102.638Z" fill="white"/>
<path d="M71.2488 95.6489C73.1145 95.6489 74.6269 94.1536 74.6269 92.309C74.6269 90.4644 73.1145 88.9691 71.2488 88.9691C69.3831 88.9691 67.8706 90.4644 67.8706 92.309C67.8706 94.1536 69.3831 95.6489 71.2488 95.6489Z" fill="#030303"/>
<path d="M97.7634 95.6489C99.6291 95.6489 101.142 94.1536 101.142 92.309C101.142 90.4644 99.6291 88.9691 97.7634 88.9691C95.8977 88.9691 94.3853 90.4644 94.3853 92.309C94.3853 94.1536 95.8977 95.6489 97.7634 95.6489Z" fill="#030303"/>
<path d="M64.7783 112.125C66.9478 112.125 68.7065 110.386 68.7065 108.241C68.7065 106.096 66.9478 104.357 64.7783 104.357C62.6088 104.357 60.8501 106.096 60.8501 108.241C60.8501 110.386 62.6088 112.125 64.7783 112.125Z" fill="#F78771"/>
<path d="M109.953 112.125C112.123 112.125 113.881 110.386 113.881 108.241C113.881 106.096 112.123 104.357 109.953 104.357C107.784 104.357 106.025 106.096 106.025 108.241C106.025 110.386 107.784 112.125 109.953 112.125Z" fill="#F78771"/>
<path d="M87.3655 100.474L84.4194 113.096L89.3296 108.241L87.3655 100.474Z" fill="#F78771"/>
<path d="M89.3299 64.549C88.4137 64.549 87.6055 65.2526 87.0652 66.3334C86.5889 64.7083 85.5882 63.5781 84.4197 63.5781C84.3402 63.5859 84.2614 63.599 84.1838 63.6173C83.7346 61.8822 82.6906 60.6653 81.4735 60.6653C79.8464 60.6653 78.5273 62.8388 78.5273 65.52C78.5273 68.2011 79.8464 70.3747 81.4735 70.3747C81.5529 70.3669 81.6317 70.3538 81.7094 70.3355C82.1586 72.0706 83.2025 73.2875 84.4197 73.2875C85.3358 73.2875 86.1441 72.5839 86.6844 71.5031C87.1607 73.1282 88.1613 74.2584 89.3299 74.2584C90.957 74.2584 92.2761 72.0849 92.2761 69.4037C92.2761 66.7225 90.957 64.549 89.3299 64.549Z" fill="#030303"/>
<path d="M57.4985 112.498C56.2089 112.498 54.9319 112.247 53.7404 111.759C52.5489 111.271 51.4663 110.556 50.5544 109.654C49.6425 108.753 48.9191 107.682 48.4256 106.504C47.932 105.326 47.678 104.064 47.678 102.789V97.9341C47.678 95.3591 48.7127 92.8895 50.5544 91.0686C52.3961 89.2477 54.894 88.2248 57.4985 88.2248V112.498Z" fill="#F78771"/>
<path d="M120.18 88.2248C121.469 88.2248 122.746 88.4759 123.938 88.9639C125.129 89.4518 126.212 90.167 127.124 91.0686C128.036 91.9702 128.759 93.0405 129.253 94.2185C129.746 95.3965 130 96.6591 130 97.9341V102.789C130 104.064 129.746 105.326 129.253 106.504C128.759 107.682 128.036 108.753 127.124 109.654C126.212 110.556 125.129 111.271 123.938 111.759C122.746 112.247 121.469 112.498 120.18 112.498V88.2248H120.18Z" fill="#F78771"/>
<path d="M125.325 98.697H123.767C123.767 79.1599 107.691 63.2652 87.9298 63.2652C68.169 63.2652 52.0923 79.1599 52.0923 98.697H50.5342C50.5342 78.3104 67.3098 61.7247 87.9298 61.7247C108.55 61.7247 125.325 78.3104 125.325 98.697Z" fill="#F78771"/>
<path d="M34.4581 69.0059L34.4584 69.0053L33.7264 68.7039L30.6378 67.413L29.5306 66.9503L29.4457 67.1624L27.9585 70.8749L32.1439 72.6264L32.1659 72.646L31.8838 73.3035C31.8452 73.3637 31.8123 73.4272 31.7854 73.4933C31.5879 73.9865 31.961 74.4771 32.3138 74.6152C32.6665 74.7533 33.1127 74.4655 33.3103 73.9723C33.5051 73.4858 33.3147 72.8678 32.9709 72.7184L32.9712 72.7179L32.2392 72.4164L29.735 71.454L31.1659 67.8822L30.9538 67.7992L29.5225 71.3723L29.2128 71.2533L30.6497 67.6662L30.6876 67.6821L33.6311 68.9138L33.6531 68.9335L33.371 69.591C33.3324 69.6511 33.2995 69.7147 33.2726 69.7808C33.075 70.274 33.4482 70.7646 33.801 70.9027C34.1537 71.0408 34.5999 70.753 34.7974 70.2598C34.9923 69.7733 34.8019 69.1552 34.4581 69.0059Z" fill="#030303"/>
<path d="M48.9446 78.1202C47.4252 77.2613 47.7293 75.3766 47.7293 75.3766C47.691 74.1522 46.6679 74.3255 46.6679 74.3255L46.2955 74.4095C46.1225 74.3302 45.9321 74.2953 45.7418 74.3083L45.1753 74.4025C46.4652 74.7022 46.3592 75.769 46.3592 75.769L46.5399 77.0163L43.1602 75.6683L43.5482 74.7637C43.6019 74.6802 43.6476 74.592 43.6849 74.5002C43.9593 73.8151 43.441 73.1338 42.9511 72.9419C42.4611 72.75 41.8415 73.1499 41.5671 73.8349C41.2964 74.5106 41.5609 75.3689 42.0384 75.5763L42.038 75.5772L43.0547 75.9958L43.0623 75.9721L48.9446 78.1202ZM47.2283 75.9285L47.3367 77.1224C46.954 76.5915 46.7742 75.9437 46.8294 75.294C46.8204 75.063 46.7415 74.8398 46.603 74.6535C46.816 74.7884 46.9871 74.9789 47.0974 75.2039C47.2078 75.4289 47.2531 75.6796 47.2283 75.9285V75.9285Z" fill="#030303"/>
<path d="M23.1639 60.4629L23.1643 60.4621L22.1476 60.0435L17.8984 58.4104L18.9709 57.467C19.1807 57.1905 19.4905 57.0048 19.8355 56.949C20.1806 56.8931 20.5341 56.9712 20.8222 57.1671L20.4894 56.6781C20.4894 56.6781 19.8637 55.8592 18.9879 56.7256C18.9879 56.7256 17.9043 58.3051 16.2021 57.9025L22.0153 60.335L22.0458 60.3624L21.6541 61.2756C21.6004 61.3591 21.5547 61.4473 21.5174 61.5391C21.243 62.2241 21.7613 62.9055 22.2512 63.0974C22.7412 63.2892 23.3608 62.8894 23.6352 62.2044C23.9059 61.5287 23.6414 60.6703 23.1639 60.4629Z" fill="#030303"/>
<path d="M38.7201 55.1179L38.3284 56.0311C38.2748 56.1146 38.229 56.2028 38.1917 56.2946C37.9173 56.9796 38.4356 57.661 38.9255 57.8529C39.4155 58.0447 40.0351 57.6449 40.3095 56.9599C40.5802 56.2842 40.3157 55.4258 39.8383 55.2184L39.8387 55.2176L38.8219 54.799L35.3439 53.4623L37.3312 48.5014L37.0366 48.3861L35.0486 53.3488L34.6186 53.1835L36.6143 48.2015L36.6669 48.2235L40.7551 49.9342L40.7857 49.9615L40.3939 50.8747C40.3403 50.9583 40.2946 51.0465 40.2573 51.1383C39.9829 51.8233 40.5011 52.5047 40.9911 52.6966C41.481 52.8884 42.1007 52.4886 42.3751 51.8036C42.6458 51.1279 42.3812 50.2695 41.9038 50.0621L41.9042 50.0613L40.8875 49.6427L36.7326 47.9062L36.7324 47.9061L36.5977 47.8498L35.06 47.2071L32.8765 52.658L38.6896 55.0905L38.7201 55.1179Z" fill="#030303"/>
<path d="M20.2982 27.2017L20.2989 27.2003L18.5488 26.4797L11.2339 23.6683L13.0801 22.0444C13.0801 22.0444 14.3082 20.3598 16.2671 21.5282L15.6942 20.6864C15.6942 20.6864 14.6172 19.2766 13.1095 20.7682C13.1095 20.7682 11.2441 23.4871 8.31396 22.794L18.3209 26.9815L18.3735 27.0286L17.6991 28.6006C17.6068 28.7444 17.5281 28.8963 17.4639 29.0543C16.9915 30.2335 17.8837 31.4065 18.7271 31.7368C19.5705 32.067 20.6372 31.3788 21.1096 30.1996C21.5755 29.0364 21.1201 27.5587 20.2982 27.2017Z" fill="#030303"/>
<path d="M25.6696 50.8172C22.037 48.7637 22.7639 44.2576 22.7639 44.2576C22.6725 41.3302 20.2262 41.7445 20.2262 41.7445L19.3359 41.9454C18.9223 41.7556 18.4669 41.6723 18.012 41.7033L16.6576 41.9287C19.7416 42.6451 19.4882 45.1957 19.4882 45.1957L19.9202 48.178L11.8396 44.955L12.7673 42.7922C12.8956 42.5925 13.005 42.3815 13.0942 42.162C13.7503 40.5242 12.5111 38.8951 11.3397 38.4364C10.1682 37.9777 8.68672 38.9336 8.03062 40.5714C7.38346 42.1869 8.01591 44.2392 9.15745 44.7351L9.15649 44.7371L11.5873 45.7379L11.6054 45.6813L25.6696 50.8172ZM21.5661 45.5771L21.8262 48.4415C20.3004 46.4391 20.6123 44.0601 20.6123 44.0601C20.5908 43.5076 20.4023 42.9742 20.0711 42.5287C21.8237 43.5656 21.5661 45.5771 21.5661 45.5771H21.5661Z" fill="#030303"/>
</svg>
